<svg width="258" height="11" viewBox="0 0 258 11" fill="none" xmlns="http://www.w3.org/2000/svg">
<path d="M2.5 4.62555L102.59 4.81306" stroke="#CF9C9B" stroke-width="5" stroke-linecap="round"/>
<path d="M155.365 4.62555L255.456 4.62554" stroke="#CF9C9B" stroke-width="5" stroke-linecap="round"/>
<ellipse cx="114.414" cy="4.53244" rx="1.46276" ry="1.40689" fill="#CF9C9B"/>
<ellipse cx="143.669" cy="4.53244" rx="1.46276" ry="1.40689" fill="#CF9C9B"/>
<path d="M130.652 1C131.165 1.00729 131.62 1.17769 131.972 1.34668C132.5 1.6007 132.875 1.98368 133.087 2.47754C133.281 2.92863 133.305 3.39752 133.3 3.76953C133.294 4.22678 133.091 4.70632 132.886 5.08008C132.66 5.49042 132.345 5.92534 131.966 6.31836C131.416 6.88831 130.848 7.39902 130.421 7.76465C130.206 7.94818 130.025 8.09736 129.896 8.20117C129.832 8.25304 129.781 8.29406 129.745 8.32227C129.727 8.33638 129.713 8.34777 129.703 8.35547C129.698 8.35926 129.694 8.36209 129.691 8.36426C129.69 8.36529 129.689 8.36654 129.688 8.36719H129.686V8.36816L129.104 8.81738L128.503 8.39648C127.893 7.97048 127.235 7.37505 126.164 6.34473C125.78 5.97549 125.462 5.51792 125.239 5.10059C125.126 4.88886 125.028 4.67051 124.956 4.46094C124.89 4.26753 124.823 4.01593 124.823 3.75684C124.823 2.71652 125.256 1.76778 126.132 1.34668C127 0.928984 127.958 0.920894 128.862 1.50391C128.923 1.54299 128.979 1.5849 129.034 1.62695C129.05 1.61275 129.065 1.59783 129.081 1.58398C129.562 1.17211 130.105 0.992282 130.652 1Z" stroke="#CF9C9B" stroke-width="2" stroke-linecap="round"/>
</svg>
