<svg width="415" height="15" viewBox="0 0 415 15" fill="none" xmlns="http://www.w3.org/2000/svg">
<path d="M3 7.40002H153" stroke="#CF9C9B" stroke-width="5" stroke-linecap="round"/>
<path d="M242 7.40002L412 7.40001" stroke="#CF9C9B" stroke-width="5" stroke-linecap="round"/>
<circle cx="172.5" cy="6.90002" r="2.5" fill="#CF9C9B"/>
<circle cx="222.5" cy="6.90002" r="2.5" fill="#CF9C9B"/>
<path d="M200.243 1.40002C200.98 1.41082 201.656 1.6664 202.215 1.94592C202.98 2.32843 203.485 2.88123 203.769 3.56799C204.035 4.21201 204.077 4.90759 204.069 5.53479C204.062 6.14283 203.791 6.85086 203.456 7.48401C203.102 8.15198 202.604 8.86977 202.001 9.52014C201.084 10.5097 200.131 11.4002 199.411 12.0406C199.05 12.3617 198.745 12.6226 198.53 12.8033C198.423 12.8936 198.337 12.9639 198.278 13.0123C198.249 13.0364 198.226 13.0551 198.21 13.068C198.202 13.0744 198.196 13.0801 198.191 13.0836C198.189 13.0852 198.188 13.0865 198.187 13.0875L198.185 13.0885L197.588 13.568L196.97 13.1188C195.979 12.3997 194.894 11.3815 193.061 9.54749C192.471 8.95794 191.972 8.21365 191.619 7.52795C191.289 6.88482 191 6.12616 191 5.52209C191 3.88857 191.643 2.53449 192.82 1.94592C193.441 1.63577 194.109 1.45805 194.811 1.48792C195.516 1.51801 196.191 1.75593 196.824 2.1803C197.104 2.36764 197.336 2.58181 197.532 2.8053C197.671 2.61195 197.831 2.42843 198.016 2.26428C198.705 1.65045 199.468 1.38874 200.243 1.40002Z" stroke="#CF9C9B" stroke-width="2" stroke-linecap="round"/>
</svg>
